<svg width="53" height="54" viewBox="0 0 53 54" fill="none" xmlns="http://www.w3.org/2000/svg">
<path d="M20.8159 7.57456C23.5928 6.01004 24.9814 5.22778 26.4998 5.22778C28.0183 5.22778 29.4069 6.01004 32.1839 7.57456L36.0484 9.7518C38.931 11.3758 40.3724 12.1878 41.1652 13.5458C41.9582 14.9038 41.9582 16.56 41.9582 19.8725V23.708C41.9582 27.0205 41.9582 28.6767 41.1652 30.0349C40.3724 31.3928 38.931 32.2048 36.0484 33.8288L32.1839 36.006C29.4069 37.5706 28.0183 38.3528 26.4998 38.3528C24.9814 38.3528 23.5928 37.5706 20.8159 36.006L16.9513 33.8288C14.0687 32.2048 12.6274 31.3928 11.8345 30.0349C11.0415 28.6767 11.0415 27.0205 11.0415 23.708V19.8725C11.0415 16.56 11.0415 14.9038 11.8345 13.5458C12.6274 12.1878 14.0687 11.3758 16.9513 9.7518L20.8159 7.57456Z" stroke="#595959" stroke-width="1.5" stroke-linejoin="round"/>
<path d="M19.875 23.2625C19.875 23.2625 21.5312 23.2625 23.1875 26.2069C23.1875 26.2069 28.4486 18.8458 33.125 17.3735" stroke="#595959" stroke-width="1.5" stroke-linecap="round" stroke-linejoin="round"/>
<path d="M37.2822 33.936L38.7622 41.0246C39.7131 45.579 40.1886 47.8563 39.2118 48.9357C38.2353 50.0149 36.5391 49.0865 33.1469 47.2298L28.1262 44.4815C27.3246 44.0427 26.9238 43.8234 26.5 43.8234C26.0762 43.8234 25.6754 44.0427 24.8738 44.4815L19.8531 47.2298C16.4609 49.0865 14.7647 50.0149 13.7881 48.9357C12.8114 47.8563 13.2869 45.579 14.2378 41.0246L15.7179 33.936" stroke="#595959" stroke-width="1.5" stroke-linecap="round" stroke-linejoin="round"/>
</svg>
