<svg width="56" height="56" viewBox="0 0 56 56" fill="none" xmlns="http://www.w3.org/2000/svg">
<path d="M7.22461 28.311C17.5876 28.311 27.9507 17.948 27.9507 7.58496C27.9507 17.948 38.3137 28.311 48.6768 28.311C38.3137 28.311 27.9507 38.6741 27.9507 49.0371C27.9507 38.6741 17.5876 28.311 7.22461 28.311Z" stroke="#595959" stroke-width="1.5" stroke-linejoin="round"/>
<path d="M4.92188 45.5827C6.84095 45.5827 10.6791 41.7444 10.6791 39.8254C10.6791 41.7444 14.5173 45.5827 16.4364 45.5827C14.5173 45.5827 10.6791 49.4209 10.6791 51.3399C10.6791 49.4209 6.84095 45.5827 4.92188 45.5827Z" stroke="#595959" stroke-width="1.5" stroke-linejoin="round"/>
<path d="M37.1621 12.1907C39.465 12.1907 44.0708 7.58488 44.0708 5.28198C44.0708 7.58488 48.6766 12.1907 50.9795 12.1907C48.6766 12.1907 44.0708 16.7965 44.0708 19.0994C44.0708 16.7965 39.465 12.1907 37.1621 12.1907Z" stroke="#595959" stroke-width="1.5" stroke-linejoin="round"/>
</svg>
