<svg width="54" height="54" viewBox="0 0 54 54" fill="none" xmlns="http://www.w3.org/2000/svg">
<path d="M49.1012 27.311C43.7891 27.311 39.51 24.3599 38.0344 22.8843H15.9008C14.4252 24.3599 10.146 27.311 4.83398 27.311L5.21207 28.0671C6.33685 30.3167 8.63607 31.7377 11.1511 31.7377H42.784C45.299 31.7377 47.5983 30.3167 48.7231 28.0671L49.1012 27.311Z" stroke="#595959" stroke-width="1.5" stroke-linecap="round" stroke-linejoin="round"/>
<path d="M42.4611 9.60421C39.2451 9.60421 36.4076 8.52249 34.3417 7.3414C32.1644 6.09668 31.0758 5.47432 30.5172 5.3259C29.9585 5.17749 29.2149 5.17749 27.727 5.17749H26.2082C24.7204 5.17749 23.9767 5.17749 23.4181 5.3259C22.8594 5.47432 21.7708 6.09668 19.5936 7.3414C17.5277 8.52249 14.6902 9.60421 11.4741 9.60421L11.8522 10.3604C12.977 12.6099 15.2762 14.0309 17.7913 14.0309H36.144C38.659 14.0309 40.9583 12.6099 42.0831 10.3604L42.4611 9.60421Z" stroke="#595959" stroke-width="1.5" stroke-linecap="round" stroke-linejoin="round"/>
<path d="M38.0342 22.8842V14.0308" stroke="#595959" stroke-width="1.5" stroke-linecap="round"/>
<path d="M15.9009 22.8842V14.0308" stroke="#595959" stroke-width="1.5" stroke-linecap="round"/>
<path d="M42.4609 49.4447V31.7378" stroke="#595959" stroke-width="1.5" stroke-linecap="round"/>
<path d="M11.4741 49.4447V31.7378" stroke="#595959" stroke-width="1.5" stroke-linecap="round"/>
<path d="M7.04736 49.4446H46.8878" stroke="#595959" stroke-width="1.5" stroke-linecap="round"/>
<path d="M22.541 49.4447V42.8046C22.541 40.3598 24.5229 38.3779 26.9677 38.3779C29.4126 38.3779 31.3945 40.3598 31.3945 42.8046V49.4447" stroke="#595959" stroke-width="1.5" stroke-linecap="round"/>
</svg>
