<svg width="54" height="53" viewBox="0 0 54 53" fill="none" xmlns="http://www.w3.org/2000/svg">
<path d="M5.28076 21.9526C6.97986 13.6368 13.2767 6.97984 21.4205 4.71443C22.1041 4.52427 22.4458 4.42919 22.6299 4.6329C22.8141 4.83662 22.6784 5.17348 22.4072 5.84716L20.5353 9.96685M31.4314 4.5188C39.7471 6.21789 46.4042 12.5147 48.6695 20.6585C48.8597 21.3421 48.9547 21.6839 48.751 21.868C48.5474 22.0521 48.2105 21.9165 47.5367 21.6452L43.4171 19.7733M48.8652 30.6694C47.166 38.9851 40.8692 45.6422 32.7254 47.9075C32.0418 48.0977 31.7001 48.1928 31.5159 47.989C31.3318 47.7855 31.4676 47.4486 31.7387 46.7747L33.6106 42.6551M22.7145 48.1032C14.3988 46.4041 7.7418 40.1072 5.47639 31.9635C5.28623 31.2798 5.19115 30.9381 5.39487 30.754C5.59858 30.5698 5.93544 30.7056 6.60913 30.9767L10.7288 32.8487" stroke="#595959" stroke-width="1.70548" stroke-linecap="round"/>
<path d="M27.0719 24.3474C24.2116 26.3092 20.7495 30.189 19.4448 36.1176M21.3516 30.8951C16.8365 20.4479 25.9446 16.9245 32.8771 16.5328C33.7137 16.4855 34.1321 16.4619 34.4324 16.7667C34.7329 17.0715 34.7155 17.506 34.6808 18.375C34.3932 25.6011 31.5125 35.543 21.3516 30.8951Z" stroke="#595959" stroke-width="1.70548" stroke-linecap="round" stroke-linejoin="round"/>
</svg>
