<svg xmlns="http://www.w3.org/2000/svg" fill="none" viewBox="0.42 0.86 235.64 69.4">
<path d="M36.4381 70.2575C36.4381 69.4575 36.5447 68.7375 36.7581 68.0975C36.9714 67.5108 37.2647 66.9242 37.6381 66.3375C38.8114 64.3108 39.9847 62.2842 41.1581 60.2575C42.3314 58.1775 43.5581 56.1242 44.8381 54.0975C46.5447 51.3775 48.2514 48.7108 49.9581 46.0975C51.7181 43.4308 53.4781 40.7375 55.2381 38.0175C55.3447 37.8042 55.4781 37.5908 55.6381 37.3775C55.7981 37.1642 55.9581 36.8708 56.1181 36.4975H54.5181C53.1314 36.5508 51.7447 36.6308 50.3581 36.7375C48.9714 36.8442 47.5847 36.8975 46.1981 36.8975C45.0781 36.9508 44.0647 37.3242 43.1581 38.0175C40.7581 40.2575 38.3314 42.4442 35.8781 44.5775C33.4247 46.6575 30.9714 48.7642 28.5181 50.8975C28.0914 51.2708 27.6114 51.6175 27.0781 51.9375C26.5981 52.2575 26.1181 52.5508 25.6381 52.8175C25.4781 52.9242 25.3181 52.9508 25.1581 52.8975C24.9981 52.8442 24.7847 52.8175 24.5181 52.8175C24.6247 52.6575 24.6781 52.4708 24.6781 52.2575C24.6781 52.0442 24.7314 51.8842 24.8381 51.7775C25.2647 51.3508 25.6647 50.9775 26.0381 50.6575C26.4114 50.3375 26.8114 49.9908 27.2381 49.6175C29.3181 47.7508 31.3981 45.9108 33.4781 44.0975C35.5581 42.2308 37.6647 40.3908 39.7981 38.5775C40.0647 38.4175 40.2781 38.2042 40.4381 37.9375C40.6514 37.6708 40.9181 37.3775 41.2381 37.0575C40.6514 37.1108 40.1447 37.1642 39.7181 37.2175C39.2914 37.2175 38.8647 37.2175 38.4381 37.2175C34.4381 37.4308 30.4914 37.6175 26.5981 37.7775C22.7581 37.9375 18.8381 38.1242 14.8381 38.3375C12.9181 38.4442 10.9714 38.5775 8.99807 38.7375C7.02473 38.8975 5.07807 39.0308 3.15807 39.1375C2.51807 39.1908 1.82473 39.1375 1.07807 38.9775C0.9714 38.8708 0.864733 38.7375 0.758066 38.5775C0.6514 38.4175 0.544733 38.2575 0.438066 38.0975C0.384733 37.9908 0.438066 37.8842 0.598066 37.7775C0.758066 37.6175 0.8914 37.4842 0.998066 37.3775C1.26473 37.2708 1.66473 37.1642 2.19807 37.0575C6.99807 36.6842 11.7981 36.3642 16.5981 36.0975C18.9981 35.8842 21.3447 35.7242 23.6381 35.6175C25.9314 35.4575 28.2781 35.2975 30.6781 35.1375C32.6514 35.0308 34.5981 34.9508 36.5181 34.8975C38.4914 34.8442 40.4914 34.7908 42.5181 34.7375C43.5314 34.7375 44.4114 34.3642 45.1581 33.6175C49.6914 29.4575 54.1714 25.3508 58.5981 21.2975C63.0781 17.2442 67.5847 13.1375 72.1181 8.97749C73.3447 7.75082 74.5447 6.57749 75.7181 5.45749C76.9447 4.28415 78.1714 3.08416 79.3981 1.85749C79.6647 1.64415 79.8781 1.45749 80.0381 1.29749C80.1981 1.13749 80.4114 1.00416 80.6781 0.897487C80.8381 0.844154 81.0514 0.844154 81.3181 0.897487C81.6381 0.897487 81.8781 0.950821 82.0381 1.05749C82.1447 1.16415 82.2247 1.35082 82.2781 1.61749C82.3847 1.88415 82.4114 2.15082 82.3581 2.41749C82.3047 2.68415 82.1714 2.95082 81.9581 3.21749C81.7981 3.43082 81.6381 3.67082 81.4781 3.93749C78.3847 8.41749 75.3181 12.8708 72.2781 17.2975C69.2381 21.6708 66.1714 26.1242 63.0781 30.6575C62.7581 31.0842 62.4381 31.5908 62.1181 32.1775C61.7981 32.7108 61.4247 33.2708 60.9981 33.8575C62.3847 34.0175 63.7447 34.1775 65.0781 34.3375C66.4114 34.4442 67.7714 34.7908 69.1581 35.3775C68.7314 35.4842 68.3581 35.5642 68.0381 35.6175C67.7181 35.6708 67.3981 35.7242 67.0781 35.7775C65.9581 35.8842 64.8114 35.9908 63.6381 36.0975C62.5181 36.2042 61.3981 36.3108 60.2781 36.4175C59.5314 36.4175 58.9981 36.6842 58.6781 37.2175C55.7981 41.8575 52.8914 46.4442 49.9581 50.9775C47.0781 55.4575 44.1981 60.0442 41.3181 64.7375C40.8914 65.3242 40.4914 65.9108 40.1181 66.4975C39.7447 67.1375 39.3447 67.7508 38.9181 68.3375C38.6514 68.7642 38.3047 69.1375 37.8781 69.4575C37.5047 69.7775 37.0247 70.0442 36.4381 70.2575ZM47.8781 34.0975C47.8781 34.1508 47.9314 34.2308 48.0381 34.3375C49.4247 34.2842 50.8114 34.2308 52.1981 34.1775C53.5847 34.1242 54.9714 34.0975 56.3581 34.0975C57.3181 34.0975 58.1181 33.6708 58.7581 32.8175C60.6247 29.9375 62.5181 27.1108 64.4381 24.3375C66.3581 21.5642 68.2514 18.7642 70.1181 15.9375C70.7581 15.0308 71.3714 14.1508 71.9581 13.2975C72.5981 12.3908 73.2114 11.4842 73.7981 10.5775C73.7981 10.5242 73.7447 10.4975 73.6381 10.4975C69.3714 14.3908 65.0781 18.3108 60.7581 22.2575C56.4914 26.1508 52.1981 30.0975 47.8781 34.0975ZM89.3637 42.2575C90.7504 41.7242 92.3504 41.0042 94.1637 40.0975C95.977 39.1375 97.577 38.2842 98.9637 37.5375C99.817 37.1642 100.484 37.0042 100.964 37.0575C101.497 37.0575 101.817 37.1908 101.924 37.4575C102.03 37.6708 101.924 37.9908 101.604 38.4175C101.337 38.7908 100.804 39.1642 100.004 39.5375C98.3504 40.2842 96.6704 41.0308 94.9637 41.7775C93.3104 42.4708 91.6304 43.1642 89.9237 43.8575C88.7504 44.3375 87.657 44.3908 86.6437 44.0175C85.6837 43.5375 85.3104 42.6308 85.5237 41.2975C85.6304 40.7642 85.7904 40.3108 86.0037 39.9375C86.217 39.5108 86.377 39.0575 86.4837 38.5775C86.697 37.9908 86.8837 37.4575 87.0437 36.9775C87.257 36.4975 87.337 36.1242 87.2837 35.8575C87.2837 35.5375 87.097 35.3508 86.7237 35.2975C86.4037 35.2442 85.817 35.3508 84.9637 35.6175C84.057 36.0975 83.1504 36.6042 82.2437 37.1375C81.3904 37.6175 80.537 38.1242 79.6837 38.6575C78.8837 39.2442 78.0837 39.8308 77.2837 40.4175C76.537 41.0042 75.737 41.5908 74.8837 42.1775C74.777 42.2842 74.6704 42.4175 74.5637 42.5775C74.4037 42.6842 74.217 42.7908 74.0037 42.8975C73.737 43.0042 73.4704 43.1108 73.2037 43.2175C72.8837 43.3242 72.5637 43.2175 72.2437 42.8975C71.977 42.6308 71.8704 42.3642 71.9237 42.0975C71.9237 41.7775 72.0304 41.4842 72.2437 41.2175C72.6704 40.5775 73.097 39.9375 73.5237 39.2975C73.897 38.6575 74.297 38.0175 74.7237 37.3775C75.257 36.6842 75.7637 35.9908 76.2437 35.2975C76.7237 34.6042 77.2037 33.8842 77.6837 33.1375C77.9504 32.8175 78.137 32.4975 78.2437 32.1775C79.1504 31.0575 79.817 30.7108 80.2437 31.1375C80.7237 31.4575 80.5637 32.2308 79.7637 33.4575C79.3904 34.0442 79.0437 34.6308 78.7237 35.2175C78.4037 35.7508 78.0304 36.2842 77.6037 36.8175C77.4437 37.0308 77.1504 37.3775 76.7237 37.8575C76.297 38.3375 75.9237 38.7908 75.6037 39.2175C75.2837 39.5908 75.1237 39.8308 75.1237 39.9375C75.0704 40.0442 75.3637 39.8042 76.0037 39.2175C77.177 38.2575 78.4037 37.3508 79.6837 36.4975C81.017 35.5908 82.3504 34.8175 83.6837 34.1775C84.217 33.9108 84.8037 33.6708 85.4437 33.4575C86.137 33.1908 86.7504 33.0842 87.2837 33.1375C87.8704 33.1375 88.3504 33.3242 88.7237 33.6975C89.1504 34.0708 89.417 34.6842 89.5237 35.5375C89.6304 36.3908 89.4704 37.1908 89.0437 37.9375C88.617 38.6308 88.217 39.3775 87.8437 40.1775C87.4704 41.1908 87.3637 41.9108 87.5237 42.3375C87.6837 42.7108 88.297 42.6842 89.3637 42.2575ZM114.598 42.2575C115.985 41.7242 117.585 41.0042 119.398 40.0975C121.211 39.1375 122.811 38.2842 124.198 37.5375C125.051 37.1642 125.718 37.0042 126.198 37.0575C126.731 37.0575 127.051 37.1908 127.158 37.4575C127.265 37.6708 127.158 37.9908 126.838 38.4175C126.571 38.7908 126.038 39.1642 125.238 39.5375C123.585 40.2842 121.905 41.0308 120.198 41.7775C118.545 42.4708 116.865 43.1642 115.158 43.8575C113.985 44.3375 112.891 44.3908 111.878 44.0175C110.918 43.5375 110.545 42.6308 110.758 41.2975C110.865 40.7642 111.025 40.3108 111.238 39.9375C111.451 39.5108 111.611 39.0575 111.718 38.5775C111.931 37.9908 112.118 37.4575 112.278 36.9775C112.491 36.4975 112.571 36.1242 112.518 35.8575C112.518 35.5375 112.331 35.3508 111.958 35.2975C111.638 35.2442 111.051 35.3508 110.198 35.6175C109.291 36.0975 108.385 36.6042 107.478 37.1375C106.625 37.6175 105.771 38.1242 104.918 38.6575C104.118 39.2442 103.318 39.8308 102.518 40.4175C101.771 41.0042 100.971 41.5908 100.118 42.1775C100.011 42.2842 99.9047 42.4175 99.7981 42.5775C99.6381 42.6842 99.4514 42.7908 99.2381 42.8975C98.9714 43.0042 98.7047 43.1108 98.4381 43.2175C98.1181 43.3242 97.7981 43.2175 97.4781 42.8975C97.2114 42.6308 97.1047 42.3642 97.1581 42.0975C97.1581 41.7775 97.2647 41.4842 97.4781 41.2175C97.9047 40.5775 98.3314 39.9375 98.7581 39.2975C99.1314 38.6575 99.5314 38.0175 99.9581 37.3775C100.491 36.6842 100.998 35.9908 101.478 35.2975C101.958 34.6042 102.438 33.8842 102.918 33.1375C103.185 32.8175 103.371 32.4975 103.478 32.1775C104.385 31.0575 105.051 30.7108 105.478 31.1375C105.958 31.4575 105.798 32.2308 104.998 33.4575C104.625 34.0442 104.278 34.6308 103.958 35.2175C103.638 35.7508 103.265 36.2842 102.838 36.8175C102.678 37.0308 102.385 37.3775 101.958 37.8575C101.531 38.3375 101.158 38.7908 100.838 39.2175C100.518 39.5908 100.358 39.8308 100.358 39.9375C100.305 40.0442 100.598 39.8042 101.238 39.2175C102.411 38.2575 103.638 37.3508 104.918 36.4975C106.251 35.5908 107.585 34.8175 108.918 34.1775C109.451 33.9108 110.038 33.6708 110.678 33.4575C111.371 33.1908 111.985 33.0842 112.518 33.1375C113.105 33.1375 113.585 33.3242 113.958 33.6975C114.385 34.0708 114.651 34.6842 114.758 35.5375C114.865 36.3908 114.705 37.1908 114.278 37.9375C113.851 38.6308 113.451 39.3775 113.078 40.1775C112.705 41.1908 112.598 41.9108 112.758 42.3375C112.918 42.7108 113.531 42.6842 114.598 42.2575ZM141.672 36.8175C141.939 36.7108 142.179 36.6308 142.392 36.5775C142.606 36.4708 142.846 36.3642 143.112 36.2575C143.752 36.1508 144.206 36.3375 144.472 36.8175C144.739 37.4575 144.579 37.9108 143.992 38.1775C142.019 39.1908 139.966 39.9642 137.832 40.4975C135.699 41.0308 133.566 41.3508 131.432 41.4575C130.686 41.5108 129.886 41.5108 129.032 41.4575C128.232 41.4042 127.486 41.2175 126.792 40.8975C126.152 40.5775 125.672 40.1242 125.352 39.5375C125.032 38.8975 125.006 38.0442 125.272 36.9775C125.646 35.9108 125.992 35.1642 126.312 34.7375C126.632 34.3108 127.246 33.8575 128.152 33.3775C129.112 32.9508 130.099 32.6575 131.112 32.4975C132.179 32.2842 133.192 32.1775 134.152 32.1775C135.059 32.2842 135.592 32.7375 135.752 33.5375C135.912 34.3908 135.619 35.0308 134.872 35.4575C134.339 35.7775 133.779 36.0708 133.192 36.3375C132.606 36.5508 131.992 36.7642 131.352 36.9775C130.872 37.0842 130.366 37.1642 129.832 37.2175C129.299 37.2708 128.766 37.2975 128.232 37.2975C127.432 37.2975 126.979 37.4842 126.872 37.8575C126.819 38.1775 126.979 38.5242 127.352 38.8975C127.886 39.4308 128.819 39.7242 130.152 39.7775C131.486 39.7775 132.899 39.6708 134.392 39.4575C135.939 39.1908 137.379 38.8175 138.712 38.3375C140.099 37.8575 141.086 37.3508 141.672 36.8175ZM133.592 34.4975C133.966 34.0175 133.966 33.7775 133.592 33.7775C133.272 33.7242 132.766 33.8042 132.072 34.0175C131.432 34.2308 130.686 34.5508 129.832 34.9775C128.979 35.4042 128.232 35.8308 127.592 36.2575C128.392 36.3642 129.432 36.2575 130.712 35.9375C131.992 35.5642 132.952 35.0842 133.592 34.4975ZM162.702 41.4575C161.795 41.3508 160.915 41.2975 160.062 41.2975C159.208 41.2442 158.328 41.1642 157.422 41.0575C156.355 40.9508 155.235 40.8708 154.062 40.8175C152.942 40.7642 151.822 40.7908 150.702 40.8975C149.155 41.0575 147.715 41.5908 146.382 42.4975C144.782 43.5642 144.302 45.0042 144.942 46.8175C145.155 47.5108 145.448 48.1242 145.822 48.6575C146.248 49.1908 146.728 49.7508 147.262 50.3375C148.648 51.7775 150.168 53.0308 151.822 54.0975C153.528 55.1642 155.315 56.1242 157.182 56.9775C162.195 59.1642 167.368 60.0975 172.702 59.7775C173.768 59.7242 174.782 59.5908 175.742 59.3775C176.755 59.1642 177.768 58.8442 178.782 58.4175C178.942 58.4175 179.048 58.3908 179.102 58.3375C181.128 57.3775 182.382 56.2308 182.862 54.8975C183.395 53.5642 183.528 52.0175 183.262 50.2575C182.942 48.1775 182.222 46.2042 181.102 44.3375C180.248 42.9508 179.395 41.5908 178.542 40.2575C177.688 38.9242 176.835 37.5642 175.982 36.1775C174.968 34.6308 174.008 33.0575 173.102 31.4575C172.195 29.8042 171.528 28.0442 171.102 26.1775C170.302 22.7642 171.102 19.8308 173.502 17.3775C174.248 16.6308 175.048 15.9642 175.902 15.3775C176.755 14.7908 177.635 14.2842 178.542 13.8575C181.048 12.7375 183.582 11.8842 186.142 11.2975C188.702 10.7108 191.368 10.4975 194.142 10.6575C194.622 10.6575 195.128 10.6842 195.662 10.7375C196.195 10.7908 196.702 10.9242 197.182 11.1375C199.688 11.9375 201.022 13.6442 201.182 16.2575C201.342 18.2308 200.888 20.0708 199.822 21.7775C199.395 22.4708 198.915 23.1908 198.382 23.9375C197.848 24.6308 197.288 25.2708 196.702 25.8575C195.635 27.0308 194.515 28.1775 193.342 29.2975C192.168 30.4175 190.995 31.5108 189.822 32.5775C189.502 32.8975 189.155 33.1908 188.782 33.4575C188.462 33.7242 188.035 33.8575 187.502 33.8575C187.395 33.5908 187.395 33.3775 187.502 33.2175C187.662 33.0575 187.795 32.9242 187.902 32.8175C189.022 31.6975 190.142 30.5775 191.262 29.4575C192.382 28.3375 193.475 27.1908 194.542 26.0175C195.288 25.1642 195.955 24.3108 196.542 23.4575C197.128 22.5508 197.715 21.6442 198.302 20.7375C199.102 19.4575 199.422 18.0708 199.262 16.5775C199.208 15.6175 198.942 14.8175 198.462 14.1775C197.982 13.4842 197.235 13.0575 196.222 12.8975C194.995 12.5775 193.795 12.4175 192.622 12.4175C187.288 12.5775 182.382 13.9108 177.902 16.4175C177.048 16.8975 176.222 17.4842 175.422 18.1775C173.075 20.2042 172.275 22.7375 173.022 25.7775C173.288 26.8975 173.635 27.9642 174.062 28.9775C174.488 29.9375 174.995 30.8975 175.582 31.8575C176.435 33.2442 177.288 34.6042 178.142 35.9375C178.995 37.2708 179.875 38.6308 180.782 40.0175C181.635 41.2975 182.408 42.6308 183.102 44.0175C183.795 45.4042 184.355 46.8442 184.782 48.3375C184.995 48.9242 185.128 49.4575 185.182 49.9375C185.288 50.4175 185.368 50.9242 185.422 51.4575C185.582 53.3775 185.262 55.0308 184.462 56.4175C183.662 57.8042 182.435 58.9508 180.782 59.8575C179.448 60.6042 178.062 61.1108 176.622 61.3775C175.182 61.6442 173.715 61.8042 172.222 61.8575C163.742 62.1775 156.035 59.8042 149.102 54.7375C148.142 53.9908 147.235 53.2175 146.382 52.4175C145.528 51.6175 144.755 50.6842 144.062 49.6175C142.675 47.5908 142.275 45.6708 142.862 43.8575C143.395 42.0442 144.808 40.6842 147.102 39.7775C148.435 39.1908 149.795 38.8708 151.182 38.8175C152.622 38.7108 154.035 38.7108 155.422 38.8175C157.768 38.9775 159.982 39.6175 162.062 40.7375C162.222 40.8442 162.355 40.9242 162.462 40.9775C162.568 41.0308 162.675 41.1108 162.782 41.2175V41.2975C162.782 41.3508 162.755 41.4042 162.702 41.4575ZM211.013 38.7375C209.84 39.3775 208.64 39.9908 207.413 40.5775C206.24 41.1642 204.986 41.6175 203.653 41.9375C203.226 41.9908 202.8 42.0442 202.373 42.0975C201.946 42.0975 201.52 42.0442 201.093 41.9375C200.346 41.8308 199.813 41.4842 199.493 40.8975C199.12 40.3108 198.986 39.6708 199.093 38.9775C199.093 38.5508 199.146 38.0975 199.253 37.6175C199.306 37.1375 199.466 36.7108 199.733 36.3375C200.32 35.3775 200.853 34.3108 201.333 33.1375C201.866 31.9642 202.48 30.9242 203.173 30.0175C203.44 29.6975 203.76 29.5375 204.133 29.5375C204.506 29.4842 204.826 29.5908 205.093 29.8575C205.413 30.0708 205.6 30.4175 205.653 30.8975C205.706 31.3242 205.52 31.8042 205.093 32.3375C204.56 33.1908 204.026 34.0175 203.493 34.8175C202.96 35.6175 202.426 36.4708 201.893 37.3775C201.36 38.4975 201.12 39.3242 201.173 39.8575C201.28 40.3375 201.546 40.6308 201.973 40.7375C202.453 40.8442 203.04 40.7908 203.733 40.5775C204.426 40.3642 205.12 40.0708 205.813 39.6975C206.56 39.3242 207.253 38.9508 207.893 38.5775C208.533 38.1508 208.986 37.7775 209.253 37.4575C209.786 36.8708 210.266 36.5775 210.693 36.5775C211.12 36.5242 211.413 36.6308 211.573 36.8975C211.786 37.1108 211.866 37.4308 211.813 37.8575C211.76 38.2308 211.493 38.5242 211.013 38.7375ZM209.093 23.6175C209.52 23.6175 209.84 23.7508 210.053 24.0175C210.32 24.2842 210.4 24.6042 210.293 24.9775C210.186 25.4042 209.893 25.8575 209.413 26.3375C208.933 26.8175 208.426 27.2175 207.893 27.5375C207.146 27.9642 206.613 28.1242 206.293 28.0175C206.026 27.9108 206 27.3508 206.213 26.3375C206.32 25.6975 206.586 25.0842 207.013 24.4975C207.493 23.9108 208.186 23.6175 209.093 23.6175ZM221.476 40.8975C223.13 40.3108 224.356 39.8842 225.156 39.6175C226.01 39.3508 226.756 39.1108 227.396 38.8975C228.09 38.6842 228.836 38.4442 229.636 38.1775C230.49 37.8575 231.743 37.4042 233.396 36.8175C233.93 36.6042 234.303 36.5242 234.516 36.5775C234.73 36.6308 234.97 36.7108 235.236 36.8175C235.503 36.8708 235.716 37.0042 235.876 37.2175C236.09 37.4842 236.116 37.7508 235.956 38.0175C235.85 38.2842 235.69 38.4708 235.476 38.5775C235.21 38.7375 234.916 38.8975 234.596 39.0575C234.276 39.2175 233.983 39.3242 233.716 39.3775C232.49 39.8042 231.663 40.0708 231.236 40.1775C230.81 40.2308 230.463 40.2575 230.196 40.2575C229.983 40.2575 229.663 40.3108 229.236 40.4175C228.863 40.4708 228.063 40.7108 226.836 41.1375C225.61 41.5642 224.356 42.0175 223.076 42.4975C221.85 42.9242 220.57 43.3508 219.236 43.7775C218.81 43.9908 218.383 44.3642 217.956 44.8975C217.583 45.3775 217.263 45.8575 216.996 46.3375C215.396 48.9508 213.61 51.4042 211.636 53.6975C209.663 55.9375 207.37 57.8842 204.756 59.5375C203.05 60.6042 201.343 61.5108 199.636 62.2575C197.876 63.0042 195.983 63.4575 193.956 63.6175C192.89 63.7242 191.93 63.6442 191.076 63.3775C190.063 63.1642 189.37 62.6842 188.996 61.9375C188.623 61.1908 188.703 60.3642 189.236 59.4575C189.823 58.3375 190.596 57.3242 191.556 56.4175C192.463 55.6708 193.396 54.9775 194.356 54.3375C195.263 53.6442 196.17 52.9508 197.076 52.2575C199.636 50.5508 202.303 49.0842 205.076 47.8575C207.796 46.6308 210.516 45.4308 213.236 44.2575C214.303 43.9375 215.263 43.4308 216.116 42.7375C217.023 42.0442 217.716 41.2175 218.196 40.2575C219.103 38.9242 219.663 37.7242 219.876 36.6575C220.09 35.5908 220.25 35.0575 220.356 35.0575C219.663 35.3775 218.81 35.9108 217.796 36.6575C216.783 37.4042 215.956 37.9375 215.316 38.2575C214.73 38.5775 214.17 38.8442 213.636 39.0575C213.103 39.2175 212.543 39.3775 211.956 39.5375C211.53 39.7508 211.13 39.8042 210.756 39.6975C210.383 39.5375 210.036 39.2975 209.716 38.9775C209.29 38.2308 209.343 37.4842 209.876 36.7375C210.143 36.3108 210.463 35.8842 210.836 35.4575C211.21 35.0308 211.61 34.6575 212.036 34.3375C212.996 33.4308 214.01 32.7108 215.076 32.1775C216.143 31.6442 217.29 31.2175 218.516 30.8975C218.836 30.7908 219.156 30.7375 219.476 30.7375C219.85 30.7375 220.196 30.7375 220.516 30.7375C220.783 30.6842 220.996 30.6575 221.156 30.6575C221.37 30.6575 221.61 30.6042 221.876 30.4975C222.196 30.3908 222.49 30.3375 222.756 30.3375C223.076 30.2842 223.316 30.3908 223.476 30.6575C223.956 31.0842 224.01 31.6975 223.636 32.4975C222.943 34.0442 222.25 35.5908 221.556 37.1375C220.916 38.6842 220.223 40.1508 219.476 41.5375L221.476 40.8975ZM195.476 61.7775C197.396 61.2442 199.343 60.4175 201.316 59.2975C203.236 58.1242 205.076 56.7908 206.836 55.2975C208.596 53.8042 210.196 52.2042 211.636 50.4975C213.076 48.7908 214.25 47.0842 215.156 45.3775C213.716 45.8042 212.036 46.4708 210.116 47.3775C208.196 48.2308 206.276 49.2175 204.356 50.3375C202.436 51.4575 200.623 52.6042 198.916 53.7775C197.156 54.9508 195.716 56.0175 194.596 56.9775C193.636 57.6708 192.863 58.3908 192.276 59.1375C191.636 59.8308 191.316 60.4442 191.316 60.9775C191.263 61.5108 191.556 61.8842 192.196 62.0975C192.836 62.2575 193.93 62.1508 195.476 61.7775ZM213.076 36.4975C212.703 37.1908 212.73 37.5375 213.156 37.5375C213.636 37.4842 214.276 37.2442 215.076 36.8175C215.876 36.3908 216.756 35.8308 217.716 35.1375C218.73 34.3908 219.61 33.6442 220.356 32.8975C219.823 32.8975 219.21 33.0042 218.516 33.2175C217.823 33.3775 217.13 33.6175 216.436 33.9375C215.796 34.2575 215.156 34.6575 214.516 35.1375C213.93 35.5642 213.45 36.0175 213.076 36.4975Z" fill="black"/>
</svg>