<svg width="211" height="64" viewBox="0 0 211 64" fill="none" xmlns="http://www.w3.org/2000/svg">
<path d="M69.564 56.4575C67.6973 56.6708 65.804 56.8575 63.884 57.0175C62.0173 57.1242 60.124 57.2842 58.204 57.4975C56.4973 57.6042 54.764 57.7642 53.004 57.9775C51.244 58.1908 49.5107 58.4042 47.804 58.6175C45.1907 58.9908 42.604 59.3908 40.044 59.8175C37.484 60.2442 34.924 60.6708 32.364 61.0975C29.804 61.5242 27.244 61.9242 24.684 62.2975C22.1773 62.6175 19.5907 62.9108 16.924 63.1775C15.6973 63.3375 14.4173 63.4175 13.084 63.4175C11.804 63.4175 10.5507 63.4175 9.324 63.4175H8.844C7.19067 63.2042 6.01734 62.6175 5.324 61.6575C4.63067 60.6442 4.49734 59.3642 4.924 57.8175C5.564 55.8442 6.39067 53.9508 7.404 52.1375C9.11067 48.9908 10.9507 45.9775 12.924 43.0975C14.9507 40.1642 17.0307 37.2575 19.164 34.3775C20.0707 33.1508 20.9773 32.0042 21.884 30.9375C22.7907 29.8175 23.644 28.6442 24.444 27.4175C24.764 27.1508 24.9773 26.7242 25.084 26.1375C24.604 26.4575 24.0973 26.7775 23.564 27.0975C23.0307 27.4175 22.4973 27.7375 21.964 28.0575C19.564 29.5508 17.1907 31.0175 14.844 32.4575C12.4973 33.8975 10.0973 35.3642 7.644 36.8575C6.79067 37.3375 5.884 37.7642 4.924 38.1375C4.01734 38.5108 3.084 38.9108 2.124 39.3375C1.85734 39.4442 1.564 39.5242 1.244 39.5775C0.977337 39.5775 0.657337 39.4175 0.284004 39.0975C0.444004 38.9908 0.577337 38.8842 0.684004 38.7775C0.844004 38.6175 1.004 38.4842 1.164 38.3775C5.324 36.3508 9.324 34.0842 13.164 31.5775C17.0573 29.0708 20.9773 26.5908 24.924 24.1375C27.164 22.8042 29.1907 21.3108 31.004 19.6575C32.8707 17.9508 34.7107 16.1642 36.524 14.2975C38.444 12.2708 40.4173 10.3242 42.444 8.45749C44.524 6.59082 46.7373 4.85749 49.084 3.25749C49.5107 2.93749 49.964 2.64415 50.444 2.37749C50.924 2.11082 51.404 1.84415 51.884 1.57749C52.0973 1.47082 52.284 1.41749 52.444 1.41749C52.6573 1.36415 52.8173 1.31082 52.924 1.25749C53.6707 0.99082 54.2573 1.07082 54.684 1.49749C55.164 1.97749 55.164 2.53749 54.684 3.17749C54.1507 3.81749 53.644 4.45749 53.164 5.09749C52.684 5.68415 52.1507 6.27082 51.564 6.85749C49.324 8.99082 46.9773 10.9908 44.524 12.8575C42.124 14.6708 39.644 16.4042 37.084 18.0575C35.484 19.1242 34.0173 20.2975 32.684 21.5775C31.3507 22.8575 30.0707 24.2442 28.844 25.7375C25.9107 29.1508 23.1107 32.6708 20.444 36.2975C17.7773 39.9242 15.1907 43.6308 12.684 47.4175C11.7773 48.8575 10.924 50.3508 10.124 51.8975C9.324 53.3908 8.524 54.8842 7.724 56.3775C7.564 56.7508 7.404 57.1508 7.244 57.5775C7.13734 58.0042 7.004 58.4575 6.844 58.9375C6.73734 60.0575 7.21734 60.7508 8.284 61.0175C8.764 61.1242 9.21734 61.2308 9.644 61.3375C10.0707 61.3908 10.4973 61.3908 10.924 61.3375C12.844 61.2308 14.764 61.1242 16.684 61.0175C18.604 60.8575 20.524 60.6442 22.444 60.3775C26.7107 59.7908 30.924 59.1508 35.084 58.4575C39.2973 57.7108 43.5373 57.0175 47.804 56.3775C50.684 55.8975 53.564 55.5508 56.444 55.3375C59.3773 55.0708 62.3107 54.8308 65.244 54.6175C66.4707 54.6175 67.6173 54.7242 68.684 54.9375C69.004 54.9908 69.244 55.1242 69.404 55.3375C69.6173 55.4975 69.6707 55.8708 69.564 56.4575ZM41.244 12.6975C42.044 12.2708 42.924 11.7108 43.884 11.0175C44.8973 10.2708 45.8573 9.49749 46.764 8.69749C47.724 7.89749 48.5507 7.15082 49.244 6.45749C49.9373 5.71082 50.3907 5.12415 50.604 4.69749C47.084 7.15082 43.964 9.81749 41.244 12.6975ZM78.599 35.7375C77.4257 36.3775 76.2257 36.9908 74.999 37.5775C73.8257 38.1642 72.5723 38.6175 71.239 38.9375C70.8123 38.9908 70.3857 39.0442 69.959 39.0975C69.5323 39.0975 69.1057 39.0442 68.679 38.9375C67.9323 38.8308 67.399 38.4842 67.079 37.8975C66.7057 37.3108 66.5723 36.6708 66.679 35.9775C66.679 35.5508 66.7323 35.0975 66.839 34.6175C66.8923 34.1375 67.0523 33.7108 67.319 33.3375C67.9057 32.3775 68.439 31.3108 68.919 30.1375C69.4523 28.9642 70.0657 27.9242 70.759 27.0175C71.0257 26.6975 71.3457 26.5375 71.719 26.5375C72.0923 26.4842 72.4123 26.5908 72.679 26.8575C72.999 27.0708 73.1857 27.4175 73.239 27.8975C73.2923 28.3242 73.1057 28.8042 72.679 29.3375C72.1457 30.1908 71.6123 31.0175 71.079 31.8175C70.5457 32.6175 70.0123 33.4708 69.479 34.3775C68.9457 35.4975 68.7057 36.3242 68.759 36.8575C68.8657 37.3375 69.1323 37.6308 69.559 37.7375C70.039 37.8442 70.6257 37.7908 71.319 37.5775C72.0123 37.3642 72.7057 37.0708 73.399 36.6975C74.1457 36.3242 74.839 35.9508 75.479 35.5775C76.119 35.1508 76.5723 34.7775 76.839 34.4575C77.3723 33.8708 77.8523 33.5775 78.279 33.5775C78.7057 33.5242 78.999 33.6308 79.159 33.8975C79.3723 34.1108 79.4523 34.4308 79.399 34.8575C79.3457 35.2308 79.079 35.5242 78.599 35.7375ZM76.679 20.6175C77.1057 20.6175 77.4257 20.7508 77.639 21.0175C77.9057 21.2842 77.9857 21.6042 77.879 21.9775C77.7723 22.4042 77.479 22.8575 76.999 23.3375C76.519 23.8175 76.0123 24.2175 75.479 24.5375C74.7323 24.9642 74.199 25.1242 73.879 25.0175C73.6123 24.9108 73.5857 24.3508 73.799 23.3375C73.9057 22.6975 74.1723 22.0842 74.599 21.4975C75.079 20.9108 75.7723 20.6175 76.679 20.6175ZM84.9021 33.4975C85.3821 33.0175 85.7288 32.4575 85.9421 31.8175C86.2088 31.1242 86.2888 30.5375 86.1821 30.0575C86.0755 29.5242 85.7821 29.1775 85.3021 29.0175C84.8221 28.8042 84.1288 28.9642 83.2221 29.4975C82.7955 29.7642 82.3421 30.1108 81.8621 30.5375C81.3821 30.9642 80.9821 31.4442 80.6621 31.9775C80.3421 32.4575 80.1555 32.9642 80.1021 33.4975C80.1021 34.0308 80.3421 34.4842 80.8221 34.8575C81.3555 35.3908 81.9155 35.9508 82.5021 36.5375C83.0888 37.0708 83.6755 37.5775 84.2621 38.0575C85.8088 37.3642 87.3288 36.7508 88.8221 36.2175C90.3155 35.6842 91.8355 34.9642 93.3821 34.0575C94.0221 33.6842 94.6088 33.4708 95.1421 33.4175C95.4088 33.4175 95.6755 33.4708 95.9421 33.5775C96.2088 33.6308 96.3955 33.8442 96.5021 34.2175C96.3421 34.6975 96.0755 35.0442 95.7021 35.2575C95.3288 35.4175 94.9555 35.5508 94.5821 35.6575C93.8355 35.9775 92.9555 36.3242 91.9421 36.6975C90.9288 37.0175 89.9155 37.3908 88.9021 37.8175C87.8888 38.1908 86.9555 38.6175 86.1021 39.0975C85.2488 39.5775 84.6355 40.0842 84.2621 40.6175C83.8355 41.4708 83.1155 42.2442 82.1021 42.9375C80.9821 43.6842 79.8088 44.3242 78.5821 44.8575C77.4088 45.3375 76.1288 45.6575 74.7421 45.8175C74.0488 45.8708 73.3021 45.8175 72.5021 45.6575C72.2888 45.6042 72.1288 45.4708 72.0221 45.2575C71.8621 45.0442 71.7555 44.8042 71.7021 44.5375C71.5955 44.2708 71.6488 44.0842 71.8621 43.9775C72.0755 43.8708 72.2888 43.7375 72.5021 43.5775C73.7821 42.5108 75.1688 41.5775 76.6621 40.7775C78.1021 39.9242 79.7555 39.2042 81.6221 38.6175C81.4621 38.4575 81.2755 38.3242 81.0621 38.2175C80.9021 38.0575 80.7421 37.8708 80.5821 37.6575C80.2088 37.3375 79.8355 37.0175 79.4621 36.6975C79.1421 36.3775 78.8488 36.0308 78.5821 35.6575C77.9955 34.9108 77.7021 34.1375 77.7021 33.3375C77.7021 32.4842 78.0221 31.6842 78.6621 30.9375C79.5688 29.9775 80.5555 29.1775 81.6221 28.5375C82.7421 27.8975 83.9688 27.4975 85.3021 27.3375C86.9555 27.0708 88.0221 27.5242 88.5021 28.6975C88.8221 29.2842 88.9021 29.8708 88.7421 30.4575C88.5821 31.0442 88.2888 31.5775 87.8621 32.0575C87.4355 32.5908 87.0355 32.9908 86.6621 33.2575C86.2888 33.4708 85.8088 33.7108 85.2221 33.9775C85.1688 33.8708 85.1155 33.7908 85.0621 33.7375C85.0088 33.6842 84.9555 33.6042 84.9021 33.4975ZM75.3821 43.3375C75.0088 43.9775 75.0088 44.3242 75.3821 44.3775C75.7555 44.4308 76.3155 44.2975 77.0621 43.9775C77.7555 43.6575 78.5555 43.2042 79.4621 42.6175C80.3688 41.9775 81.1955 41.3108 81.9421 40.6175C80.9288 40.6175 79.7555 40.8575 78.4221 41.3375C77.0888 41.7642 76.0755 42.4308 75.3821 43.3375ZM117.522 34.8575C116.935 35.4442 116.029 36.0575 114.802 36.6975C113.629 37.3375 112.429 37.7908 111.202 38.0575C110.029 38.3242 108.989 38.2975 108.082 37.9775C107.175 37.6575 106.722 36.8042 106.722 35.4175C106.722 34.9908 106.749 34.5642 106.802 34.1375C106.855 33.6575 106.935 33.1508 107.042 32.6175C105.655 33.4708 104.295 34.3242 102.962 35.1775C101.682 35.9775 100.349 36.7508 98.9621 37.4975C98.6421 37.7642 98.2688 37.9242 97.8421 37.9775C97.4688 38.0308 97.0955 38.0842 96.7221 38.1375C95.5488 38.2975 94.7221 37.9508 94.2421 37.0975C93.7621 36.2442 93.8421 35.3642 94.4821 34.4575C94.7488 34.1375 94.9888 33.8442 95.2021 33.5775C95.4155 33.3108 95.6821 33.0442 96.0021 32.7775C97.3888 31.5508 98.9088 30.6442 100.562 30.0575C102.215 29.4708 104.002 29.2575 105.922 29.4175C106.615 29.5242 107.175 29.3108 107.602 28.7775C107.975 28.4042 108.322 28.0308 108.642 27.6575C109.015 27.2842 109.389 26.9108 109.762 26.5375C109.869 26.3775 110.002 26.2175 110.162 26.0575C110.322 25.8975 110.482 25.7908 110.642 25.7375C110.802 25.6842 110.989 25.6575 111.202 25.6575C111.469 25.6575 111.682 25.7108 111.842 25.8175C112.109 26.1908 112.215 26.5908 112.162 27.0175C112.109 27.4442 111.895 27.9775 111.522 28.6175C111.362 28.9375 111.042 29.6042 110.562 30.6175C110.082 31.5775 109.709 32.5375 109.442 33.4975C109.229 34.4575 109.229 35.2575 109.442 35.8975C109.655 36.4842 110.375 36.5908 111.602 36.2175C112.242 36.0575 112.935 35.7908 113.682 35.4175C114.429 34.9908 115.175 34.5908 115.922 34.2175C116.135 34.1108 116.349 34.0042 116.562 33.8975C116.775 33.7375 117.015 33.6842 117.282 33.7375C117.549 33.8442 117.735 34.0308 117.842 34.2975C118.002 34.5108 117.895 34.6975 117.522 34.8575ZM96.4821 35.8175C98.0288 35.5508 99.6555 34.9642 101.362 34.0575C103.069 33.0975 104.455 32.0842 105.522 31.0175C103.922 31.1242 102.242 31.6042 100.482 32.4575C98.7221 33.3108 97.3888 34.4308 96.4821 35.8175ZM136.616 38.4575C135.709 38.3508 134.829 38.2975 133.976 38.2975C133.123 38.2442 132.243 38.1642 131.336 38.0575C130.269 37.9508 129.149 37.8708 127.976 37.8175C126.856 37.7642 125.736 37.7908 124.616 37.8975C123.069 38.0575 121.629 38.5908 120.296 39.4975C118.696 40.5642 118.216 42.0042 118.856 43.8175C119.069 44.5108 119.363 45.1242 119.736 45.6575C120.163 46.1908 120.643 46.7508 121.176 47.3375C122.563 48.7775 124.083 50.0308 125.736 51.0975C127.443 52.1642 129.229 53.1242 131.096 53.9775C136.109 56.1642 141.283 57.0975 146.616 56.7775C147.683 56.7242 148.696 56.5908 149.656 56.3775C150.669 56.1642 151.683 55.8442 152.696 55.4175C152.856 55.4175 152.963 55.3908 153.016 55.3375C155.043 54.3775 156.296 53.2308 156.776 51.8975C157.309 50.5642 157.443 49.0175 157.176 47.2575C156.856 45.1775 156.136 43.2042 155.016 41.3375C154.163 39.9508 153.309 38.5908 152.456 37.2575C151.603 35.9242 150.749 34.5642 149.896 33.1775C148.883 31.6308 147.923 30.0575 147.016 28.4575C146.109 26.8042 145.443 25.0442 145.016 23.1775C144.216 19.7642 145.016 16.8308 147.416 14.3775C148.163 13.6308 148.963 12.9642 149.816 12.3775C150.669 11.7908 151.549 11.2842 152.456 10.8575C154.963 9.73749 157.496 8.88415 160.056 8.29749C162.616 7.71082 165.283 7.49749 168.056 7.65749C168.536 7.65749 169.043 7.68416 169.576 7.73749C170.109 7.79082 170.616 7.92415 171.096 8.13749C173.603 8.93749 174.936 10.6442 175.096 13.2575C175.256 15.2308 174.803 17.0708 173.736 18.7775C173.309 19.4708 172.829 20.1908 172.296 20.9375C171.763 21.6308 171.203 22.2708 170.616 22.8575C169.549 24.0308 168.429 25.1775 167.256 26.2975C166.083 27.4175 164.909 28.5108 163.736 29.5775C163.416 29.8975 163.069 30.1908 162.696 30.4575C162.376 30.7242 161.949 30.8575 161.416 30.8575C161.309 30.5908 161.309 30.3775 161.416 30.2175C161.576 30.0575 161.709 29.9242 161.816 29.8175C162.936 28.6975 164.056 27.5775 165.176 26.4575C166.296 25.3375 167.389 24.1908 168.456 23.0175C169.203 22.1642 169.869 21.3108 170.456 20.4575C171.043 19.5508 171.629 18.6442 172.216 17.7375C173.016 16.4575 173.336 15.0708 173.176 13.5775C173.123 12.6175 172.856 11.8175 172.376 11.1775C171.896 10.4842 171.149 10.0575 170.136 9.89749C168.909 9.57749 167.709 9.41749 166.536 9.41749C161.203 9.57749 156.296 10.9108 151.816 13.4175C150.963 13.8975 150.136 14.4842 149.336 15.1775C146.989 17.2042 146.189 19.7375 146.936 22.7775C147.203 23.8975 147.549 24.9642 147.976 25.9775C148.403 26.9375 148.909 27.8975 149.496 28.8575C150.349 30.2442 151.203 31.6042 152.056 32.9375C152.909 34.2708 153.789 35.6308 154.696 37.0175C155.549 38.2975 156.323 39.6308 157.016 41.0175C157.709 42.4042 158.269 43.8442 158.696 45.3375C158.909 45.9242 159.043 46.4575 159.096 46.9375C159.203 47.4175 159.283 47.9242 159.336 48.4575C159.496 50.3775 159.176 52.0308 158.376 53.4175C157.576 54.8042 156.349 55.9508 154.696 56.8575C153.363 57.6042 151.976 58.1108 150.536 58.3775C149.096 58.6442 147.629 58.8042 146.136 58.8575C137.656 59.1775 129.949 56.8042 123.016 51.7375C122.056 50.9908 121.149 50.2175 120.296 49.4175C119.443 48.6175 118.669 47.6842 117.976 46.6175C116.589 44.5908 116.189 42.6708 116.776 40.8575C117.309 39.0442 118.723 37.6842 121.016 36.7775C122.349 36.1908 123.709 35.8708 125.096 35.8175C126.536 35.7108 127.949 35.7108 129.336 35.8175C131.683 35.9775 133.896 36.6175 135.976 37.7375C136.136 37.8442 136.269 37.9242 136.376 37.9775C136.483 38.0308 136.589 38.1108 136.696 38.2175V38.2975C136.696 38.3508 136.669 38.4042 136.616 38.4575ZM184.927 35.7375C183.754 36.3775 182.554 36.9908 181.327 37.5775C180.154 38.1642 178.9 38.6175 177.567 38.9375C177.14 38.9908 176.714 39.0442 176.287 39.0975C175.86 39.0975 175.434 39.0442 175.007 38.9375C174.26 38.8308 173.727 38.4842 173.407 37.8975C173.034 37.3108 172.9 36.6708 173.007 35.9775C173.007 35.5508 173.06 35.0975 173.167 34.6175C173.22 34.1375 173.38 33.7108 173.647 33.3375C174.234 32.3775 174.767 31.3108 175.247 30.1375C175.78 28.9642 176.394 27.9242 177.087 27.0175C177.354 26.6975 177.674 26.5375 178.047 26.5375C178.42 26.4842 178.74 26.5908 179.007 26.8575C179.327 27.0708 179.514 27.4175 179.567 27.8975C179.62 28.3242 179.434 28.8042 179.007 29.3375C178.474 30.1908 177.94 31.0175 177.407 31.8175C176.874 32.6175 176.34 33.4708 175.807 34.3775C175.274 35.4975 175.034 36.3242 175.087 36.8575C175.194 37.3375 175.46 37.6308 175.887 37.7375C176.367 37.8442 176.954 37.7908 177.647 37.5775C178.34 37.3642 179.034 37.0708 179.727 36.6975C180.474 36.3242 181.167 35.9508 181.807 35.5775C182.447 35.1508 182.9 34.7775 183.167 34.4575C183.7 33.8708 184.18 33.5775 184.607 33.5775C185.034 33.5242 185.327 33.6308 185.487 33.8975C185.7 34.1108 185.78 34.4308 185.727 34.8575C185.674 35.2308 185.407 35.5242 184.927 35.7375ZM183.007 20.6175C183.434 20.6175 183.754 20.7508 183.967 21.0175C184.234 21.2842 184.314 21.6042 184.207 21.9775C184.1 22.4042 183.807 22.8575 183.327 23.3375C182.847 23.8175 182.34 24.2175 181.807 24.5375C181.06 24.9642 180.527 25.1242 180.207 25.0175C179.94 24.9108 179.914 24.3508 180.127 23.3375C180.234 22.6975 180.5 22.0842 180.927 21.4975C181.407 20.9108 182.1 20.6175 183.007 20.6175ZM195.39 37.8975C197.044 37.3108 198.27 36.8842 199.07 36.6175C199.924 36.3508 200.67 36.1108 201.31 35.8975C202.004 35.6842 202.75 35.4442 203.55 35.1775C204.404 34.8575 205.657 34.4042 207.31 33.8175C207.844 33.6042 208.217 33.5242 208.43 33.5775C208.644 33.6308 208.884 33.7108 209.15 33.8175C209.417 33.8708 209.63 34.0042 209.79 34.2175C210.004 34.4842 210.03 34.7508 209.87 35.0175C209.764 35.2842 209.604 35.4708 209.39 35.5775C209.124 35.7375 208.83 35.8975 208.51 36.0575C208.19 36.2175 207.897 36.3242 207.63 36.3775C206.404 36.8042 205.577 37.0708 205.15 37.1775C204.724 37.2308 204.377 37.2575 204.11 37.2575C203.897 37.2575 203.577 37.3108 203.15 37.4175C202.777 37.4708 201.977 37.7108 200.75 38.1375C199.524 38.5642 198.27 39.0175 196.99 39.4975C195.764 39.9242 194.484 40.3508 193.15 40.7775C192.724 40.9908 192.297 41.3642 191.87 41.8975C191.497 42.3775 191.177 42.8575 190.91 43.3375C189.31 45.9508 187.524 48.4042 185.55 50.6975C183.577 52.9375 181.284 54.8842 178.67 56.5375C176.964 57.6042 175.257 58.5108 173.55 59.2575C171.79 60.0042 169.897 60.4575 167.87 60.6175C166.804 60.7242 165.844 60.6442 164.99 60.3775C163.977 60.1642 163.284 59.6842 162.91 58.9375C162.537 58.1908 162.617 57.3642 163.15 56.4575C163.737 55.3375 164.51 54.3242 165.47 53.4175C166.377 52.6708 167.31 51.9775 168.27 51.3375C169.177 50.6442 170.084 49.9508 170.99 49.2575C173.55 47.5508 176.217 46.0842 178.99 44.8575C181.71 43.6308 184.43 42.4308 187.15 41.2575C188.217 40.9375 189.177 40.4308 190.03 39.7375C190.937 39.0442 191.63 38.2175 192.11 37.2575C193.017 35.9242 193.577 34.7242 193.79 33.6575C194.004 32.5908 194.164 32.0575 194.27 32.0575C193.577 32.3775 192.724 32.9108 191.71 33.6575C190.697 34.4042 189.87 34.9375 189.23 35.2575C188.644 35.5775 188.084 35.8442 187.55 36.0575C187.017 36.2175 186.457 36.3775 185.87 36.5375C185.444 36.7508 185.044 36.8042 184.67 36.6975C184.297 36.5375 183.95 36.2975 183.63 35.9775C183.204 35.2308 183.257 34.4842 183.79 33.7375C184.057 33.3108 184.377 32.8842 184.75 32.4575C185.124 32.0308 185.524 31.6575 185.95 31.3375C186.91 30.4308 187.924 29.7108 188.99 29.1775C190.057 28.6442 191.204 28.2175 192.43 27.8975C192.75 27.7908 193.07 27.7375 193.39 27.7375C193.764 27.7375 194.11 27.7375 194.43 27.7375C194.697 27.6842 194.91 27.6575 195.07 27.6575C195.284 27.6575 195.524 27.6042 195.79 27.4975C196.11 27.3908 196.404 27.3375 196.67 27.3375C196.99 27.2842 197.23 27.3908 197.39 27.6575C197.87 28.0842 197.924 28.6975 197.55 29.4975C196.857 31.0442 196.164 32.5908 195.47 34.1375C194.83 35.6842 194.137 37.1508 193.39 38.5375L195.39 37.8975ZM169.39 58.7775C171.31 58.2442 173.257 57.4175 175.23 56.2975C177.15 55.1242 178.99 53.7908 180.75 52.2975C182.51 50.8042 184.11 49.2042 185.55 47.4975C186.99 45.7908 188.164 44.0842 189.07 42.3775C187.63 42.8042 185.95 43.4708 184.03 44.3775C182.11 45.2308 180.19 46.2175 178.27 47.3375C176.35 48.4575 174.537 49.6042 172.83 50.7775C171.07 51.9508 169.63 53.0175 168.51 53.9775C167.55 54.6708 166.777 55.3908 166.19 56.1375C165.55 56.8308 165.23 57.4442 165.23 57.9775C165.177 58.5108 165.47 58.8842 166.11 59.0975C166.75 59.2575 167.844 59.1508 169.39 58.7775ZM186.99 33.4975C186.617 34.1908 186.644 34.5375 187.07 34.5375C187.55 34.4842 188.19 34.2442 188.99 33.8175C189.79 33.3908 190.67 32.8308 191.63 32.1375C192.644 31.3908 193.524 30.6442 194.27 29.8975C193.737 29.8975 193.124 30.0042 192.43 30.2175C191.737 30.3775 191.044 30.6175 190.35 30.9375C189.71 31.2575 189.07 31.6575 188.43 32.1375C187.844 32.5642 187.364 33.0175 186.99 33.4975Z" fill="black"/>
</svg>
