<?xml version="1.0"?>
<svg width="158" height="24" xmlns="http://www.w3.org/2000/svg" xmlns:svg="http://www.w3.org/2000/svg">
 <defs>
  <clipPath id="clip0_127_31">
   <rect fill="white" height="24" id="svg_1" transform="translate(0.78418)" width="157"/>
  </clipPath>
 </defs>
 <g class="layer">
  <title>Layer 1</title>
  <g clip-path="url(#clip0_127_31)" id="svg_2">
   <path d="m12.57,23.89c-1.67,0 -3.2,-0.3 -4.62,-0.9c-1.41,-0.6 -2.64,-1.44 -3.7,-2.52c-1.06,-1.07 -1.89,-2.33 -2.5,-3.78c-0.58,-1.45 -0.87,-3.03 -0.87,-4.75c0,-1.72 0.28,-3.3 0.84,-4.75c0.58,-1.47 1.39,-2.73 2.43,-3.78c1.06,-1.08 2.3,-1.91 3.71,-2.48c1.41,-0.6 2.95,-0.9 4.61,-0.9c1.66,0 3.15,0.27 4.46,0.83c1.33,0.56 2.45,1.31 3.36,2.24c0.92,0.91 1.57,1.91 1.97,3.01l-3.77,1.8c-0.44,-1.2 -1.18,-2.18 -2.22,-2.92c-1.04,-0.74 -2.3,-1.12 -3.8,-1.12c-1.45,0 -2.74,0.34 -3.86,1.03c-1.1,0.68 -1.96,1.62 -2.59,2.82c-0.6,1.2 -0.9,2.61 -0.9,4.22c0,1.61 0.31,3.03 0.93,4.25c0.65,1.2 1.53,2.14 2.65,2.83c1.12,0.68 2.41,1.02 3.87,1.02c1.18,0 2.27,-0.23 3.27,-0.68c0.99,-0.48 1.79,-1.14 2.4,-1.99c0.6,-0.87 0.9,-1.89 0.9,-3.07l0,-1.77l1.93,1.68l-8.6,0l0,-3.57l10.91,0l0,2.32c0,1.78 -0.3,3.36 -0.91,4.72c-0.6,1.37 -1.42,2.51 -2.46,3.45c-1.02,0.91 -2.17,1.6 -3.46,2.07c-1.28,0.46 -2.61,0.69 -3.98,0.69z" fill="#ffffff" id="svg_3"/>
   <path d="m26.73,23.52l0,-23.12l7.57,0c2.45,0 4.58,0.49 6.39,1.49c1.83,0.97 3.24,2.32 4.23,4.06c1,1.72 1.5,3.72 1.5,5.99c0,2.26 -0.5,4.26 -1.5,6.02c-0.99,1.74 -2.4,3.1 -4.23,4.1c-1.81,0.97 -3.94,1.46 -6.39,1.46l-7.57,0zm4.24,-3.73l3.42,0c1.58,0 2.94,-0.32 4.09,-0.96c1.16,-0.66 2.06,-1.57 2.71,-2.73c0.64,-1.18 0.96,-2.57 0.96,-4.16c0,-1.61 -0.32,-3 -0.96,-4.16c-0.65,-1.16 -1.55,-2.06 -2.71,-2.7c-1.15,-0.64 -2.51,-0.96 -4.09,-0.96l-3.42,0l0,15.67z" fill="#ffffff" id="svg_4"/>
   <path d="m50.14,23.52l0,-23.12l3.05,0l0,10.3l11.62,0l0,-10.3l3.08,0l0,23.12l-3.08,0l0,-10.03l-11.62,0l0,10.03l-3.05,0z" fill="#ffffff" id="svg_5"/>
   <path d="m84.14,23.89c-1.64,0 -3.18,-0.29 -4.61,-0.87c-1.44,-0.6 -2.69,-1.44 -3.77,-2.51c-1.06,-1.08 -1.89,-2.34 -2.5,-3.79c-0.6,-1.47 -0.9,-3.06 -0.9,-4.78c0,-1.74 0.3,-3.33 0.9,-4.78c0.61,-1.45 1.44,-2.71 2.5,-3.78c1.08,-1.08 2.32,-1.91 3.74,-2.49c1.43,-0.58 2.98,-0.86 4.64,-0.86c1.66,0 3.2,0.3 4.61,0.9c1.43,0.57 2.68,1.4 3.74,2.48c1.08,1.05 1.92,2.3 2.52,3.75c0.63,1.45 0.94,3.04 0.94,4.78c0,1.72 -0.31,3.31 -0.94,4.78c-0.6,1.45 -1.44,2.71 -2.52,3.79c-1.06,1.07 -2.31,1.91 -3.74,2.51c-1.41,0.58 -2.95,0.87 -4.61,0.87zm0,-2.83c1.29,0 2.46,-0.22 3.52,-0.68c1.06,-0.47 1.97,-1.13 2.74,-1.95c0.79,-0.85 1.39,-1.82 1.81,-2.92c0.43,-1.12 0.65,-2.31 0.65,-3.57c0,-1.26 -0.22,-2.44 -0.65,-3.54c-0.42,-1.09 -1.02,-2.06 -1.81,-2.88c-0.77,-0.85 -1.68,-1.5 -2.74,-1.96c-1.06,-0.47 -2.23,-0.71 -3.52,-0.71c-1.27,0 -2.43,0.24 -3.49,0.71c-1.06,0.46 -1.98,1.11 -2.77,1.96c-0.77,0.82 -1.37,1.79 -1.81,2.88c-0.44,1.1 -0.66,2.28 -0.66,3.54c0,1.26 0.22,2.45 0.66,3.57c0.44,1.1 1.04,2.07 1.81,2.92c0.79,0.82 1.71,1.48 2.77,1.95c1.06,0.46 2.22,0.68 3.49,0.68z" fill="#ffffff" id="svg_6"/>
   <path d="m108.81,23.89c-1.68,0 -3.18,-0.35 -4.48,-1.06c-1.29,-0.7 -2.3,-1.66 -3.03,-2.88c-0.7,-1.24 -1.06,-2.65 -1.06,-4.22l0,-15.33l3.09,0l0,15.26c0,1.06 0.23,2 0.68,2.83c0.48,0.8 1.13,1.44 1.94,1.89c0.83,0.46 1.78,0.68 2.86,0.68c1.08,0 2.03,-0.22 2.84,-0.68c0.83,-0.45 1.47,-1.09 1.93,-1.89c0.48,-0.83 0.72,-1.77 0.72,-2.83l0,-15.26l3.08,0l0,15.33c0,1.57 -0.36,2.98 -1.09,4.22c-0.71,1.22 -1.7,2.18 -2.99,2.88c-1.29,0.71 -2.78,1.06 -4.49,1.06z" fill="#ffffff" id="svg_7"/>
   <path d="m130.37,23.89c-1.47,0 -2.82,-0.27 -4.05,-0.81c-1.22,-0.56 -2.26,-1.31 -3.11,-2.26c-0.85,-0.96 -1.47,-2.02 -1.84,-3.2l2.65,-1.09c0.56,1.49 1.39,2.64 2.49,3.45c1.12,0.78 2.43,1.18 3.93,1.18c0.91,0 1.71,-0.15 2.4,-0.44c0.68,-0.29 1.21,-0.69 1.59,-1.21c0.39,-0.54 0.59,-1.16 0.59,-1.86c0,-0.97 -0.28,-1.74 -0.84,-2.3c-0.54,-0.58 -1.34,-1.01 -2.4,-1.3l-4.27,-1.3c-1.68,-0.52 -2.97,-1.34 -3.87,-2.45c-0.89,-1.12 -1.33,-2.4 -1.33,-3.85c0,-1.26 0.3,-2.37 0.9,-3.32c0.62,-0.97 1.47,-1.73 2.55,-2.27c1.1,-0.56 2.35,-0.83 3.74,-0.83c1.39,0 2.65,0.24 3.77,0.74c1.14,0.5 2.11,1.17 2.9,2.02c0.79,0.82 1.37,1.78 1.74,2.85l-2.61,1.09c-0.5,-1.31 -1.25,-2.29 -2.25,-2.95c-0.99,-0.68 -2.17,-1.02 -3.52,-1.02c-0.83,0 -1.56,0.14 -2.21,0.43c-0.62,0.27 -1.11,0.67 -1.46,1.21c-0.34,0.52 -0.5,1.14 -0.5,1.86c0,0.85 0.27,1.61 0.81,2.27c0.54,0.66 1.36,1.17 2.46,1.52l3.89,1.15c1.83,0.55 3.21,1.35 4.15,2.39c0.93,1.03 1.4,2.31 1.4,3.84c0,1.27 -0.33,2.38 -1,3.35c-0.64,0.98 -1.54,1.74 -2.71,2.3c-1.14,0.54 -2.47,0.81 -3.99,0.81z" fill="#ffffff" id="svg_8"/>
   <path d="m142.54,23.52l0,-23.12l15.11,0l0,2.79l-12.06,0l0,7.32l11.44,0l0,2.8l-11.44,0l0,7.41l12.06,0l0,2.8l-15.11,0z" fill="#ffffff" id="svg_9"/>
  </g>
 </g>
</svg>