<svg width="158" height="24" viewBox="0 0 158 24" fill="none" xmlns="http://www.w3.org/2000/svg">
<g clip-path="url(#clip0_127_31)">
<path d="M12.5656 23.8874C10.9039 23.8874 9.36682 23.5875 7.95438 22.9876C6.54194 22.3877 5.30607 21.5498 4.24675 20.4741C3.18742 19.3984 2.35658 18.1365 1.75422 16.6884C1.17263 15.2403 0.881836 13.6578 0.881836 11.9408C0.881836 10.2238 1.16225 8.64122 1.72306 7.19314C2.30465 5.72439 3.11472 4.46248 4.15328 3.40745C5.2126 2.33173 6.44847 1.50426 7.86091 0.925024C9.27335 0.325106 10.8104 0.0251465 12.4721 0.0251465C14.1338 0.0251465 15.6189 0.30442 16.9275 0.862966C18.2568 1.42151 19.3785 2.16624 20.2924 3.09714C21.2063 4.00737 21.8606 5.01067 22.2553 6.10708L18.4853 7.90684C18.0491 6.70701 17.3118 5.73472 16.2732 4.98999C15.2346 4.24526 13.9676 3.8729 12.4721 3.8729C11.0181 3.8729 9.73031 4.21423 8.60867 4.8969C7.5078 5.57957 6.64581 6.52083 6.02268 7.72066C5.42031 8.92049 5.11913 10.3272 5.11913 11.9408C5.11913 13.5544 5.4307 14.9714 6.05383 16.1919C6.69773 17.3918 7.5805 18.333 8.70214 19.0157C9.82378 19.6984 11.1116 20.0397 12.5656 20.0397C13.7495 20.0397 14.84 19.8121 15.837 19.357C16.834 18.8812 17.6337 18.2193 18.2361 17.3711C18.8384 16.5022 19.1396 15.4782 19.1396 14.2991V12.5304L21.0713 14.206H12.4721V10.6375H23.3769V12.9648C23.3769 14.7439 23.0757 16.3161 22.4734 17.6814C21.871 19.0467 21.0505 20.1948 20.012 21.1257C18.9942 22.036 17.8414 22.729 16.5536 23.2048C15.2658 23.6599 13.9364 23.8874 12.5656 23.8874Z" fill="black"/>
<path d="M26.7295 23.515V0.397461H34.3005C36.7517 0.397461 38.8806 0.893946 40.6876 1.88692C42.5157 2.8592 43.9279 4.21419 44.9249 5.95188C45.922 7.6689 46.4205 9.66519 46.4205 11.9407C46.4205 14.1956 45.922 16.2022 44.9249 17.9606C43.9279 19.6983 42.5157 21.0636 40.6876 22.0566C38.8806 23.0289 36.7517 23.515 34.3005 23.515H26.7295ZM30.9668 19.7914H34.394C35.9728 19.7914 37.3332 19.4707 38.4755 18.8295C39.6388 18.1675 40.5423 17.2573 41.1861 16.0988C41.8302 14.9196 42.152 13.5336 42.152 11.9407C42.152 10.3272 41.8302 8.94114 41.1861 7.78267C40.5423 6.6242 39.6388 5.72432 38.4755 5.08303C37.3332 4.44175 35.9728 4.12109 34.394 4.12109H30.9668V19.7914Z" fill="black"/>
<path d="M50.1353 23.515V0.397461H53.1886V10.6995H64.81V0.397461H67.8945V23.515H64.81V13.4922H53.1886V23.515H50.1353Z" fill="black"/>
<path d="M84.1385 23.8874C82.4977 23.8874 80.9605 23.5978 79.5273 23.0186C78.0941 22.4187 76.8377 21.5809 75.7574 20.5051C74.6981 19.4294 73.8673 18.1675 73.2649 16.7194C72.6627 15.2507 72.3613 13.6578 72.3613 11.9408C72.3613 10.2031 72.6627 8.61021 73.2649 7.16211C73.8673 5.71404 74.6981 4.45215 75.7574 3.37642C76.8377 2.3007 78.0839 1.47323 79.4962 0.893996C80.9294 0.314762 82.477 0.0251465 84.1385 0.0251465C85.8003 0.0251465 87.3374 0.325106 88.7497 0.925024C90.1829 1.50426 91.4292 2.33173 92.4885 3.40745C93.5687 4.46248 94.41 5.71404 95.0122 7.16211C95.6353 8.61021 95.9469 10.2031 95.9469 11.9408C95.9469 13.6578 95.6353 15.2507 95.0122 16.7194C94.41 18.1675 93.5687 19.4294 92.4885 20.5051C91.4292 21.5809 90.1829 22.4187 88.7497 23.0186C87.3374 23.5978 85.8003 23.8874 84.1385 23.8874ZM84.1385 21.0637C85.4264 21.0637 86.5999 20.8361 87.6592 20.381C88.7185 19.9052 89.6325 19.2536 90.401 18.4261C91.1904 17.578 91.7928 16.6057 92.2081 15.5093C92.6443 14.3922 92.8624 13.2027 92.8624 11.9408C92.8624 10.6789 92.6443 9.49974 92.2081 8.40333C91.7928 7.30694 91.1904 6.34497 90.401 5.51751C89.6325 4.66934 88.7185 4.0177 87.6592 3.5626C86.5999 3.08682 85.4264 2.8489 84.1385 2.8489C82.8716 2.8489 81.7083 3.08682 80.649 3.5626C79.5897 4.0177 78.6654 4.66934 77.876 5.51751C77.1076 6.34497 76.5052 7.30694 76.069 8.40333C75.6328 9.49974 75.4147 10.6789 75.4147 11.9408C75.4147 13.2027 75.6328 14.3922 76.069 15.5093C76.5052 16.6057 77.1076 17.578 77.876 18.4261C78.6654 19.2536 79.5897 19.9052 80.649 20.381C81.7083 20.8361 82.8716 21.0637 84.1385 21.0637Z" fill="black"/>
<path d="M108.812 23.8874C107.13 23.8874 105.634 23.5357 104.326 22.8324C103.038 22.129 102.031 21.1671 101.303 19.9466C100.597 18.7053 100.244 17.2986 100.244 15.7264V0.397461H103.329V15.6644C103.329 16.7194 103.557 17.6607 104.014 18.4881C104.492 19.2949 105.136 19.9259 105.946 20.381C106.777 20.8361 107.732 21.0636 108.812 21.0636C109.892 21.0636 110.837 20.8361 111.647 20.381C112.478 19.9259 113.122 19.2949 113.579 18.4881C114.057 17.6607 114.296 16.7194 114.296 15.6644V0.397461H117.38V15.7264C117.38 17.2986 117.017 18.7053 116.29 19.9466C115.584 21.1671 114.587 22.129 113.299 22.8324C112.011 23.5357 110.516 23.8874 108.812 23.8874Z" fill="black"/>
<path d="M130.374 23.8874C128.9 23.8874 127.55 23.6185 126.324 23.0807C125.099 22.5221 124.06 21.7671 123.208 20.8154C122.357 19.8639 121.744 18.7985 121.37 17.6193L124.018 16.5333C124.579 18.0227 125.41 19.1708 126.511 19.9776C127.633 20.7637 128.941 21.1568 130.437 21.1568C131.351 21.1568 132.15 21.012 132.836 20.7224C133.521 20.4328 134.051 20.0294 134.425 19.5122C134.82 18.9743 135.017 18.3537 135.017 17.6504C135.017 16.6781 134.736 15.9127 134.175 15.3541C133.636 14.7749 132.836 14.3405 131.776 14.0508L127.508 12.7476C125.826 12.2304 124.538 11.4133 123.645 10.2962C122.751 9.17908 122.305 7.89651 122.305 6.44842C122.305 5.18652 122.606 4.07978 123.208 3.12817C123.831 2.15589 124.683 1.40082 125.763 0.862966C126.864 0.30442 128.11 0.0251465 129.502 0.0251465C130.894 0.0251465 132.15 0.27339 133.272 0.769872C134.415 1.26636 135.38 1.93868 136.17 2.78684C136.959 3.61431 137.54 4.56592 137.914 5.64163L135.297 6.72769C134.799 5.42442 134.051 4.4418 133.054 3.77981C132.057 3.09714 130.883 2.75581 129.533 2.75581C128.702 2.75581 127.965 2.90061 127.321 3.19023C126.698 3.45915 126.21 3.86255 125.857 4.40042C125.524 4.91758 125.358 5.53818 125.358 6.26223C125.358 7.1104 125.628 7.86546 126.168 8.52744C126.708 9.18943 127.529 9.69625 128.63 10.0479L132.524 11.1961C134.352 11.7546 135.733 12.5511 136.668 13.5854C137.603 14.6197 138.07 15.9023 138.07 17.4331C138.07 18.695 137.738 19.8121 137.073 20.7844C136.429 21.7567 135.526 22.5221 134.362 23.0807C133.22 23.6185 131.891 23.8874 130.374 23.8874Z" fill="black"/>
<path d="M142.541 23.515V0.397461H157.651V3.19019H145.594V10.5133H157.028V13.3061H145.594V20.7223H157.651V23.515H142.541Z" fill="black"/>
</g>
<defs>
<clipPath id="clip0_127_31">
<rect width="157" height="24" fill="white" transform="translate(0.78418)"/>
</clipPath>
</defs>
</svg>
